<?xml version="1.0" standalone="no"?>
<!DOCTYPE svg PUBLIC "-//W3C//DTD SVG 1.1//EN" "http://www.w3.org/Graphics/SVG/1.1/DTD/svg11.dtd" >
<svg xmlns="http://www.w3.org/2000/svg">
<metadata></metadata>
<defs>
<font id="MyriadWebBold" horiz-adv-x="1167" >
<font-face units-per-em="2048" ascent="1638" descent="-410" />
<missing-glyph horiz-adv-x="423" />
<glyph horiz-adv-x="0" />
<glyph horiz-adv-x="2048" />
<glyph unicode="&#xd;" horiz-adv-x="423" />
<glyph unicode=" "  horiz-adv-x="423" />
<glyph unicode="&#x09;" horiz-adv-x="423" />
<glyph unicode="&#xa0;" horiz-adv-x="423" />
<glyph unicode="!" horiz-adv-x="555" d="M90 166.5q0 82.5 52 135t134 52.5q83 0 135 -52.5t52 -135.5t-52 -136t-134.5 -53t-134.5 53.5t-52 136zM115 1380h325l-45 -927h-235z" />
<glyph unicode="&#x22;" horiz-adv-x="829" d="M74 1419h282l-49 -557h-186zM473 1419h283l-47 -557h-187z" />
<glyph unicode="#" horiz-adv-x="1157" d="M80 362v193h203l32 229h-174v193h205l51 354h185l-52 -354h193l53 354h185l-52 -354h166v-193h-196l-33 -229h170v-193h-203l-51 -362h-189l54 362h-191l-53 -362h-186l53 362h-170zM469 555h190l33 229h-190z" />
<glyph unicode="$" d="M113 104l63 244q175 -94 354 -94q77 0 132 26q72 33 71 101q0 104 -225 174q-383 119 -383 377q0 151 100.5 245.5t257.5 122.5v193h205v-180q177 -7 307 -68l-63 -235q-147 74 -316 73.5t-170 -114.5q0 -86 254 -174q172 -59 251 -133q103 -96 103.5 -253t-106 -254 t-268.5 -126v-209h-205v194q-216 11 -362 90z" />
<glyph unicode="%" horiz-adv-x="1855" d="M57 938q0 176 103 296t278 120t274 -110t99 -288t-101.5 -301t-275.5 -123t-275.5 115t-101.5 291zM297 942q0 -89 28 -151q37 -84 113 -84q137 -1 137 236t-139 237t-139 -238zM455 -23l770 1375h170l-770 -1375h-170zM1042 385.5q0 175.5 103.5 295.5t278.5 120 t273.5 -110t98.5 -287t-102 -301t-276 -123.5t-275 115.5t-101 290.5zM1282 389q0 -88 28 -150q37 -85 113 -85q138 -1 138 236t-139.5 237t-139.5 -238z" />
<glyph unicode="&#x26;" horiz-adv-x="1423" d="M66 369q0 260 268 397v8q-106 120 -106.5 275t125 254.5t291.5 99.5t278 -85t112 -239q0 -219 -276 -354l-2 -6l233 -256q88 137 125 340h283q-61 -342 -236 -529q163 -182 250 -274h-369q-46 43 -94 100q-160 -123 -375 -123t-351 94q-157 106 -156 298zM366.5 428.5 q0.5 -104.5 68.5 -163t177 -58.5t185 69q-101 97 -318 338q-113 -81 -112.5 -185.5zM514 1067q0 -97 98 -197q154 100 154 201q0 56 -34 95.5t-90.5 39.5t-92 -40t-35.5 -99z" />
<glyph unicode="'" horiz-adv-x="428" d="M74 1419h280l-47 -557h-186z" />
<glyph unicode="(" horiz-adv-x="657" d="M129 588.5q0 479.5 233 826.5h220q-205 -340 -205 -821.5t205 -831.5h-220q-233 347 -233 826.5z" />
<glyph unicode=")" horiz-adv-x="657" d="M76 -238q205 350 205 827t-205 826h219q233 -343 233 -823t-233 -830h-219z" />
<glyph unicode="*" horiz-adv-x="946" d="M66 889v209l323 -66v4l-217 264l182 103l115 -318h4l119 318l180 -103l-221 -268l332 66v-209l-334 57v-6l223 -254l-182 -106l-119 317h-4l-117 -317l-178 106l221 256l-2 4z" />
<glyph unicode="+" horiz-adv-x="1220" d="M84 451v192h426v447h203v-447h426v-192h-426v-451h-203v451h-426z" />
<glyph unicode="," horiz-adv-x="538" d="M0 -242q102 291 152 586l321 21q-108 -337 -260 -588z" />
<glyph unicode="-" horiz-adv-x="673" d="M61 430v209h551v-209h-551z" />
<glyph unicode="." horiz-adv-x="538" d="M102 168q0 83 53 136.5t136.5 53.5t134.5 -53t51 -137t-52 -137.5t-135.5 -53.5t-135.5 54t-52 137z" />
<glyph unicode="/" horiz-adv-x="690" d="M43 -82l432 1485h211l-434 -1485h-209z" />
<glyph unicode="0" d="M67.5 663.5q0.5 286.5 113.5 469.5q137 221 405.5 221t402.5 -218q111 -180 111 -468.5t-111 -469.5q-135 -220 -404.5 -220.5t-405.5 218.5q-112 181 -111.5 467.5zM383 664q0 -453 199 -453t198.5 453t-196.5 452q-201 1 -201 -452z" />
<glyph unicode="1" d="M182 1167l359 164h260v-1331h-305v1051h-4l-256 -121z" />
<glyph unicode="2" d="M92 0v188q112 95 224 191q173 152 287 289t114 237q0 195 -223 195q-145 0 -295 -115l-93 225q193 143 451 144q209 0 343 -109.5t134 -308.5t-165 -388q-91 -104 -322 -286v-4h514v-258h-969z" />
<glyph unicode="3" d="M82 76l65 235q169 -84 324 -84q99 0 165 37q83 46 83 139.5t-83 140t-187 46.5h-140v227h133q88 0 163 36.5t75 115.5q0 137 -201 137q-148 0 -291 -84l-67 227q176 104 428 105q178 0 303 -76q150 -91 149 -258q0 -222 -247 -309v-4q128 -23 211.5 -109t83.5 -213 q0 -205 -184 -315q-153 -92 -387 -92t-396 98z" />
<glyph unicode="4" d="M51 319v203l510 809h395v-778h162v-234h-162v-319h-301v319h-604zM348 553h307v297q0 79 9 252h-7q-108 -220 -127 -252z" />
<glyph unicode="5" d="M90 55l60 238q144 -70 281.5 -70t211.5 46q90 54 90 155q0 221 -385 221q-77 0 -188 -12l88 698h753v-258h-534l-29 -199q60 4 92 5q230 0 370 -100q159 -114 159 -335.5t-187 -351.5q-165 -115 -392.5 -115t-389.5 78z" />
<glyph unicode="6" d="M63 561q0 349 205 560q184 189 488 222q57 7 205 7v-242q-196 0 -305 -36q-150 -50 -221 -167q-34 -54 -48 -117h6q110 106 296 106.5t303.5 -122.5t117.5 -323t-146 -335.5t-358 -136.5q-255 0 -398.5 162.5t-144.5 421.5zM377 485q0 -114 57.5 -194t157.5 -80t148 68.5 t48 164.5t-54 161t-142 65t-151.5 -54t-63.5 -131z" />
<glyph unicode="7" d="M102 1073v258h967v-196l-563 -1135h-340l565 1073h-629z" />
<glyph unicode="8" d="M70 348q0 228 241 332v6q-197 100 -196.5 286t153.5 291q133 91 318.5 91t311.5 -79q148 -93 149 -263q0 -195 -197 -293v-6q250 -91 250 -330q0 -201 -168 -311q-144 -94 -348.5 -94.5t-344.5 84.5q-169 101 -169 286zM395 369.5q0 -67.5 56.5 -120t136 -52.5t135 43.5 t55.5 119.5q0 118 -121 180q-68 34 -98 33.5t-74 -31t-67 -68t-23 -105zM418 989q-1 -122 194 -180q59 17 99.5 63t40.5 113t-46 111.5t-119.5 44.5t-121 -40t-47.5 -112z" />
<glyph unicode="9" d="M63 887q0 197 151 332t364 135q249 0 383.5 -161t134.5 -415q0 -372 -199 -576q-178 -184 -496 -215q-53 -5 -213 -5v243q29 -3 60 -3q438 0 524 331l-4 2q-95 -98 -279.5 -98t-305 116.5t-120.5 313.5zM379 893.5q0 -92.5 52.5 -152t159 -59.5t161.5 79q20 31 20 81 q0 115 -43 188q-53 92 -151.5 92t-148.5 -68t-50 -160.5z" />
<glyph unicode=":" horiz-adv-x="538" d="M100 166.5q0 82.5 52 136t135.5 53.5t134.5 -53t51 -136.5t-51.5 -136.5t-134 -53t-135 53.5t-52.5 136zM102 826q0 83 52 136.5t135.5 53.5t134.5 -53.5t51 -137t-51.5 -136t-134 -52.5t-135 53t-52.5 136z" />
<glyph unicode=";" horiz-adv-x="538" d="M2 -244q102 291 152 586l319 20q-108 -336 -260 -587zM115 825.5q0 82.5 51.5 136.5t135 54t134.5 -53.5t51 -137t-51.5 -136t-134 -52.5t-134.5 53t-52 135.5z" />
<glyph unicode="&#x3c;" horiz-adv-x="1220" d="M117 455v180l985 455v-220l-748 -323v-4l748 -324v-219z" />
<glyph unicode="=" horiz-adv-x="1220" d="M82 238v192h1057v-192h-1057zM82 666v192h1057v-192h-1057z" />
<glyph unicode="&#x3e;" horiz-adv-x="1220" d="M119 0v217l758 326v4l-758 325v218l985 -451v-188z" />
<glyph unicode="?" horiz-adv-x="937" d="M102 1317q153 86 337.5 86t300.5 -80t116 -236.5t-178 -345.5q-106 -114 -107 -256v-34h-276l-2 70q0 163 122 302t122 211q0 121 -150 121q-119 0 -213 -63zM240 166.5q0 82.5 51.5 135t134.5 52.5t134.5 -52.5t51.5 -135.5t-51.5 -136t-134 -53t-134.5 53.5t-52 136z " />
<glyph unicode="@" horiz-adv-x="1611" d="M109 627q0 211 99.5 391t279 282.5t399.5 102.5q270 0 452 -166.5t183 -433.5q0 -195 -105 -337.5t-293 -141.5q-158 0 -178 155h-4q-102 -156 -270 -155q-112 0 -173.5 77.5t-62.5 192.5q0 207 140 340t348 133q152 0 247 -51l-59 -380q-8 -52 -8 -83q0 -90 64 -90 q99 0 154 127q42 97 42 211q0 219 -138.5 346t-361.5 127q-263 0 -428.5 -180.5t-165.5 -436.5t144.5 -402t390.5 -146q171 0 301 63l37 -123q-163 -72 -381 -72q-282 0 -467.5 184t-185.5 466zM647 621q0 -129 105 -129q69 0 118 69.5t60 145.5l26 186q-33 8 -63 8 q-108 0 -177 -85.5t-69 -194.5z" />
<glyph unicode="A" horiz-adv-x="1390" d="M39 0l436 1380h418l448 -1380h-344l-112 360h-414l-102 -360h-330zM518 594h318q-125 404 -162 555h-4l-66 -262z" />
<glyph unicode="B" horiz-adv-x="1265" d="M137 6v1356q167 31 414 31q588 0 588 -351q0 -209 -230 -292v-5q127 -34 203 -122.5t76 -216.5q0 -420 -705 -420q-201 0 -346 20zM451 225q26 -6 127 -6q276 0 276 199q0 192 -288 192h-3h-112v-385zM451 836h106q262 0 262 170q0 157 -226 157h-3q-95 0 -139 -10v-317z " />
<glyph unicode="C" horiz-adv-x="1267" d="M74 675q0 333 218 530.5t558 197.5q230 0 358 -64l-65 -249q-128 55 -279 55q-211 0 -333.5 -122t-122.5 -333t123 -330.5t335 -119.5q155 0 277 47l49 -246q-141 -63 -371 -64q-335 0 -541 182.5t-206 515.5z" />
<glyph unicode="D" horiz-adv-x="1474" d="M137 6v1356q205 31 438 31q373 0 582 -145q244 -168 244 -523q0 -739 -893 -739q-211 0 -371 20zM455 238q27 -6 114 -7q236 0 366 123.5t130 349t-120 335.5t-339 110q-93 0 -151 -12v-899z" />
<glyph unicode="E" horiz-adv-x="1126" d="M137 0v1380h881v-258h-563v-284h530v-256h-530v-324h592v-258h-910z" />
<glyph unicode="F" horiz-adv-x="1112" d="M137 0v1380h873v-258h-555v-313h518v-256h-518v-553h-318z" />
<glyph unicode="G" horiz-adv-x="1445" d="M74 675q0 342 230.5 530.5t582.5 189.5q250 0 401 -70l-67 -250q-140 61 -347 61q-1 1 -2 1q-206 0 -334 -117q-130 -117 -130 -326t124.5 -331.5t331.5 -122.5q117 0 164 20v287h-223v246h530v-727q-251 -80 -481 -80q-349 0 -564.5 173.5t-215.5 515.5z" />
<glyph unicode="H" horiz-adv-x="1452" d="M137 0v1380h318v-530h542v530h318v-1380h-318v575h-542v-575h-318z" />
<glyph unicode="I" horiz-adv-x="591" d="M137 0v1380h318v-1380h-318z" />
<glyph unicode="J" horiz-adv-x="868" d="M-2 12l37 252q87 -24 162 -24h6q127 0 174 72.5t47 207.5v860h317v-866q0 -537 -503 -537q-134 0 -240 35z" />
<glyph unicode="K" horiz-adv-x="1294" d="M137 0v1380h314v-608q58 86 114 165l316 443h393l-473 -585l499 -795h-370l-357 598l-122 -147v-451h-314z" />
<glyph unicode="L" horiz-adv-x="1077" d="M137 0v1380h318v-1114h571v-266h-889z" />
<glyph unicode="M" horiz-adv-x="1783" d="M109 0l88 1380h430q118 -392 167 -566.5t89 -385.5h8q76 322 129 480l158 472h421l74 -1380h-311q-33 821 -33 1114h-6q-50 -220 -336 -1091h-248q-212 741 -282 1091h-4q-13 -422 -23 -596l-27 -518h-294z" />
<glyph unicode="N" horiz-adv-x="1456" d="M137 0v1380h377l333 -564q90 -154 200 -419h4q-25 217 -25 570v413h293v-1380h-336l-419 735q-68 125 -140 293h-8q14 -261 14 -600v-428h-293z" />
<glyph unicode="O" horiz-adv-x="1525" d="M74 682q0 311 192.5 516t502.5 205t496.5 -195.5t186.5 -512.5t-189 -517.5t-503.5 -200.5t-500 197t-185.5 508zM408 689q0 -184 82 -312q96 -150 272 -150t271 150q81 127 81 312.5t-83 314.5q-96 150 -269 150h-1q-174 0 -271 -152q-82 -129 -82 -313z" />
<glyph unicode="P" horiz-adv-x="1218" d="M137 0v1364q196 29 440.5 29t394.5 -91q181 -112 181 -351t-178 -361q-154 -106 -412 -107q-54 0 -112 9v-492h-314zM451 735q34 -8 131.5 -8t177.5 54.5t80 168.5q0 203 -254 203q-96 0 -135 -10v-408z" />
<glyph unicode="Q" horiz-adv-x="1525" d="M74 690.5q0 304.5 191.5 508.5t503 204t497.5 -196t186 -502q0 -198 -86.5 -367.5t-253.5 -245.5v-8q125 -36 340 -76l-88 -246q-256 71 -569 195q-42 16 -99 20q-287 19 -454.5 214t-167.5 499.5zM410 687.5q0 -184.5 83 -311.5q96 -148 271 -148l1 -1q174 0 270 150 q81 127 81 312t-82 313q-96 151 -270 151t-271 -152q-83 -129 -83 -313.5z" />
<glyph unicode="R" horiz-adv-x="1245" d="M137 0v1362q174 31 428 31q588 0 588 -400q0 -115 -68.5 -207.5t-179.5 -130.5v-8q128 -48 187 -254q103 -365 114 -393h-323q-41 77 -99 322q-28 118 -75.5 169t-159.5 52h-98v-543h-314zM451 770h131q106 0 181 48.5t75 150.5q0 190 -238 190q-111 0 -149 -10v-379z " />
<glyph unicode="S" horiz-adv-x="1140" d="M86 66l66 260q177 -90 360 -90q223 0 223 149q0 75 -86 127q-45 29 -151 63q-395 131 -396 412q0 204 171 318q147 98 360 98t371 -72l-72 -252q-144 68 -301 68q-79 0 -133 -28q-72 -35 -72 -107t100 -126q34 -18 164 -65q369 -130 369 -415q0 -218 -182 -333 q-154 -95 -384.5 -95t-406.5 88z" />
<glyph unicode="T" horiz-adv-x="1159" d="M31 1116v264h1097v-264h-393v-1116h-317v1116h-387z" />
<glyph unicode="U" horiz-adv-x="1439" d="M137 618v762h318v-782q0 -371 262 -371q268 0 268 371v782h318v-766q0 -304 -149 -470.5t-447 -166.5q-569 0 -570 641z" />
<glyph unicode="V" horiz-adv-x="1347" d="M20 1380h349q288 -956 305 -1077h4q51 230 136 499l183 578h336l-481 -1380h-373z" />
<glyph unicode="W" horiz-adv-x="1867" d="M31 1380h340q143 -735 194 -1052h4q27 199 211 1052h346q163 -838 187 -1044h4q16 157 201 1044h323l-368 -1380h-345l-153 774q-17 94 -35 258h-4q-37 -228 -80 -422l-137 -610h-350z" />
<glyph unicode="X" horiz-adv-x="1304" d="M37 0l416 698l-402 682h369q184 -366 233 -481h4q44 123 222 481h366l-405 -671l426 -709h-371l-256 498h-4q-19 -51 -77 -172l-155 -326h-366z" />
<glyph unicode="Y" horiz-adv-x="1282" d="M25 1380h364l260 -594q47 127 256 594h361l-473 -798v-582h-318v569z" />
<glyph unicode="Z" horiz-adv-x="1226" d="M51 0v170l684 948h-622v262h1038v-178l-670 -940h682v-262h-1112z" />
<glyph unicode="[" horiz-adv-x="657" d="M143 -229v1632h424v-172h-196v-1288h196v-172h-424z" />
<glyph unicode="\" horiz-adv-x="714" d="M31 1403h211l432 -1485h-211z" />
<glyph unicode="]" horiz-adv-x="657" d="M90 -57h197v1288h-197v172h424v-1632h-424v172z" />
<glyph unicode="^" horiz-adv-x="1220" d="M86 362l428 969h193l428 -969h-226l-299 730l-303 -730h-221z" />
<glyph unicode="_" horiz-adv-x="1024" d="M0 -154h1024v-102h-1024v102z" />
<glyph unicode="`" horiz-adv-x="614" d="M4 1436h293l180 -314h-217z" />
<glyph unicode="a" horiz-adv-x="1107" d="M61 285q0 216 207 313q153 72 398 72v12q0 125 -189 125q-154 0 -284 -76l-60 201q167 92 399 92q449 0 449 -432v-348q0 -152 16 -244h-284l-19 100h-8q-103 -123 -293 -123q-139 0 -235 85t-97 223zM375 317q0 -118 125 -118h2q74 0 124 49t50 123v102 q-301 0 -301 -156z" />
<glyph unicode="b" horiz-adv-x="1259" d="M119 0q8 135 8 301v1157h317v-579h5q104 145 311 145t324 -156q108 -140 108 -350q0 -329 -231 -472q-112 -69 -242 -69q-213 0 -313 164h-5l-14 -141h-268zM444 434q0 -89 56 -149t157.5 -60t157 80.5t55.5 199t-56 198t-157 79.5t-157 -63.5t-56 -153.5v-131z" />
<glyph unicode="c" horiz-adv-x="954" d="M234 883q166 141 421 141q138 0 248 -41l-51 -233q-77 33 -189 33q-2 -1 -3 -1q-114 0 -190.5 -77t-76.5 -202t78 -201.5t192 -76.5t201 33l39 -231q-116 -49 -293 -50q-243 0 -393 137t-150 381q0 247 167 388z" />
<glyph unicode="d" horiz-adv-x="1255" d="M194 868q124 156 327.5 156t285.5 -115h4v549h317v-1159q0 -164 9 -299h-283l-12 152h-4q-104 -174 -318 -174q-1 0 -1 -1q-212 0 -331 152.5t-119 365.5q0 216 125 373zM391 502q0 -116 56 -194.5t158.5 -78.5t154 65t51.5 161v116q0 90 -52.5 150.5t-153.5 60.5 t-157.5 -82t-56.5 -198z" />
<glyph unicode="e" horiz-adv-x="1105" d="M212 872q144 152 368.5 152t345.5 -140t121 -364q-1 -73 -13 -121h-665q9 -98 96 -143t220 -45t263 43l41 -211q-156 -66 -389 -66q-233 -1 -383 133q-150 133 -150 370q0 239 145 392zM367 616h385q0 88 -48 143.5t-133.5 55.5t-138 -56t-65.5 -143z" />
<glyph unicode="f" horiz-adv-x="712" d="M31 768v233h131v37q0 286 198 392q97 51 195 51t182 -21l-10 -243q-46 14 -102 14q-147 0 -148 -178v-52h203v-233h-201v-768h-317v768h-131z" />
<glyph unicode="g" horiz-adv-x="1230" d="M198 868q127 156 330.5 156t292.5 -143h4l11 120h274q-8 -118 -8 -296v-555q0 -296 -138.5 -438t-433.5 -142q-224 0 -372 80l63 239q139 -78 282 -78q1 0 2 1q144 0 215 68.5t71 195.5v65h-5q-99 -133 -290 -133t-309 142q-118 140 -118 350q0 211 129 368zM391 505 q0 -110 53.5 -187.5t150.5 -77.5t143 61t46 154v133q0 85 -49 141.5t-143 56.5t-147.5 -85.5t-53.5 -195.5z" />
<glyph unicode="h" horiz-adv-x="1228" d="M129 0v1458h317v-579h5q105 145 289.5 145t274 -126t89.5 -318v-580h-318v543q0 225 -168 225q-77 0 -124.5 -50.5t-47.5 -127.5v-590h-317z" />
<glyph unicode="i" horiz-adv-x="573" d="M109 1298q0 75 51 120.5t127 45.5t127 -45.5t51 -121t-50.5 -120t-127.5 -44.5t-127.5 45t-50.5 120zM129 0v1001h317v-1001h-317z" />
<glyph unicode="j" horiz-adv-x="612" d="M-82 -197q197 13 234 148q20 77 20 254v796h317v-874q0 -288 -128 -428.5t-412 -140.5zM152 1298q0 75 51 120.5t127.5 45.5t127 -45t50.5 -121t-50.5 -120.5t-127.5 -44.5t-127.5 45t-50.5 120z" />
<glyph unicode="k" horiz-adv-x="1142" d="M127 0v1458h317v-878h5q27 53 286 421h383l-373 -405l429 -596h-394l-254 412l-82 -101v-311h-317z" />
<glyph unicode="l" horiz-adv-x="573" d="M129 0v1458h317v-1458h-317z" />
<glyph unicode="m" horiz-adv-x="1804" d="M121 1001h266l14 -139h7q106 162 312.5 162t276.5 -176h4q126 176 317 176t281 -136q78 -117 78 -304v-584h-307v539q0 231 -153 231q-75 0 -117.5 -56t-42.5 -134v-580h-307v553q0 217 -150 217q-75 0 -119.5 -57.5t-44.5 -134.5v-578h-307v680q0 148 -8 321z" />
<glyph unicode="n" horiz-adv-x="1228" d="M121 1001h274l15 -141h8q112 164 306.5 164t287 -123t92.5 -313v-588h-318v547q0 223 -165 223q-80 0 -127 -57t-48 -140v-573h-317v680q0 148 -8 321z" />
<glyph unicode="o" horiz-adv-x="1214" d="M222 881q154 143 392 143t385.5 -141.5t147.5 -376.5t-151 -382t-389.5 -147t-388.5 141t-151 379q1 241 155 384zM393 501q0 -119 52 -208.5t161 -89.5t165 100q46 81 46 199t-45 197q-55 99 -165 99q-1 0 -1 1q-109 0 -166 -99q-47 -80 -47 -199z" />
<glyph unicode="p" horiz-adv-x="1259" d="M119 1001h276l15 -143q124 166 337 166t328 -152t115 -366t-126 -371.5t-331 -157.5t-284 117h-5v-500h-317v1070q0 154 -8 337zM444 436q0 -125 93 -185q48 -32 106 -32q113 0 169 81.5t56 198.5t-54.5 198t-153.5 81t-157.5 -65t-58.5 -154v-123z" />
<glyph unicode="q" horiz-adv-x="1255" d="M70 487q0 330 228 471q106 66 226 66q201 0 293 -141l8 118h310l-7 -299v-1108h-317v537h-4q-101 -154 -304 -154t-318.5 153t-114.5 357zM391 501q0 -116 55.5 -196t155.5 -80t154.5 62t54.5 153v135q0 86 -55 145.5t-154 59.5t-155 -81.5t-56 -197.5z" />
<glyph unicode="r" horiz-adv-x="798" d="M121 1001h272l10 -190h9q34 94 108 153.5t170 59.5q48 0 68 -6v-297q-40 10 -86 10q-225 0 -226 -225v-506h-317v668q0 225 -8 333z" />
<glyph unicode="s" horiz-adv-x="915" d="M70 49l57 225q131 -76 272 -76h2q142 0 142 83q0 47 -56 76q-24 13 -96 36q-295 91 -295 299q0 161 125 246.5t291 85.5t293 -59l-55 -217q-119 57 -234 57t-115 -80q0 -61 168 -115q279 -88 279 -307q0 -169 -143 -255q-118 -71 -305 -71t-330 72z" />
<glyph unicode="t" horiz-adv-x="763" d="M35 768v233h135v189l309 84v-273h228v-233h-228v-352q0 -180 125 -180q61 0 96 10l2 -240q-75 -29 -206 -29q-326 0 -326 388v403h-135z" />
<glyph unicode="u" horiz-adv-x="1226" d="M125 414v587h317v-534q0 -236 164 -236q74 0 124 52.5t50 126.5v591h318v-677q0 -161 8 -324h-275l-14 145h-8q-106 -168 -322 -168q-186 0 -274 121t-88 316z" />
<glyph unicode="v" horiz-adv-x="1118" d="M20 1001h345q198 -647 200 -706h8q19 108 54 226l137 480h336l-385 -1001h-320z" />
<glyph unicode="w" horiz-adv-x="1589" d="M25 1001h321q119 -571 143 -739h5q16 103 55 253l127 486h252q159 -609 178 -739h4q15 158 147 739h310l-312 -1001h-299l-122 460q-16 68 -41 204h-5q-24 -161 -60 -290l-107 -374h-299z" />
<glyph unicode="x" horiz-adv-x="1093" d="M6 0l352 512l-344 489h355q143 -225 188 -313h6q29 63 172 313h346l-342 -475l346 -526h-360q-151 255 -184 332h-6q-27 -59 -179 -332h-350z" />
<glyph unicode="y" horiz-adv-x="1101" d="M14 1001h353q194 -614 206 -677h7l176 677h340l-232 -633q-176 -483 -324 -641t-356 -180l-65 267q80 16 184.5 83t104.5 136q0 13 -17 53z" />
<glyph unicode="z" horiz-adv-x="987" d="M45 0v180l366 436q35 39 124 136h-455v249h846v-188l-376 -451q-39 -46 -106 -108v-4h498v-250h-897z" />
<glyph unicode="{" horiz-adv-x="657" d="M66 510v156q158 4 157 143q0 68 -11 169.5t-11 151.5q0 272 311 273h76v-174h-37q-127 0 -127 -146l10 -114q10 -115 10 -144q0 -103 -39 -158.5t-137 -76.5v-4q176 -33 176 -236l-20 -258q0 -147 127 -147h37v-174h-76q-311 0 -311 278q0 49 11 150.5t11 167.5 q1 136 -157 143z" />
<glyph unicode="|" horiz-adv-x="593" d="M188 -512v2048h220v-2048h-220z" />
<glyph unicode="}" horiz-adv-x="657" d="M70 -55h36q127 0 127 147l-22 258q0 203 176 236v4q-97 20 -136.5 76t-39.5 159l22 258q0 145 -127 146h-36v174h75q311 0 312 -273q0 -54 -12.5 -161t-12.5 -160q0 -136 160 -143l-2 -156q-158 -7 -158 -143q0 -29 12 -139.5t13 -178.5q0 -279 -312 -278h-75v174z" />
<glyph unicode="~" horiz-adv-x="1220" d="M84 391q0 387 287 387q110 0 273.5 -89t211.5 -89q74 0 82 166h199q0 -215 -72 -302t-195 -87t-286.5 91t-206.5 91q-83 0 -96 -168h-197z" />
<glyph unicode="&#xa1;" horiz-adv-x="555" d="M92 822.5q0 82.5 52.5 136t134.5 53.5t134 -53.5t52 -136.5t-51.5 -135t-134.5 -52t-135 52.5t-52 135zM117 -391l45 926h235l45 -926h-325z" />
<glyph unicode="&#xa2;" d="M160 669.5q0 202.5 115.5 340.5t312.5 178v192h205v-184q100 -4 200 -41l-51 -231q-78 37 -194 37t-190.5 -75t-74.5 -200.5t74.5 -200.5t193.5 -75t214 36l39 -227q-84 -39 -211 -49v-195h-205v201q-202 30 -315 160.5t-113 333z" />
<glyph unicode="&#xa3;" d="M109 0v166q97 43 165 124t68 179q0 53 -6 78h-203v217h166q-14 86 -14 160q0 200 133.5 315t337.5 115q156 0 250 -51l-52 -238q-72 39 -180 39q-197 0 -196 -195q0 -59 18 -145h291v-217h-262q0 -96 -25.5 -159.5t-93.5 -125.5v-4h561v-258h-958z" />
<glyph unicode="&#xa4;" d="M43 1087l139 144l160 -176q99 76 242.5 75.5t242.5 -71.5l160 172l139 -144l-180 -159q68 -106 68 -244.5t-74 -241.5l174 -166l-137 -139l-152 182q-101 -82 -245.5 -81.5t-239.5 77.5l-150 -178l-137 139l172 162q-76 105 -75.5 244t73.5 246zM385 686.5 q0 -94.5 53.5 -166.5t146.5 -71.5t145 71.5t52 166.5t-53.5 164.5t-145 69t-145 -69.5t-53.5 -164z" />
<glyph unicode="&#xa5;" d="M2 1331h344l149 -323q34 -73 87 -224h4q28 77 91 228l150 319h336l-362 -579h250v-148h-330v-131h330v-147h-330v-326h-297v326h-326v147h326v131h-326v148h250z" />
<glyph unicode="&#xa6;" horiz-adv-x="593" d="M188 356h220v-716h-220v716zM188 664v716h220v-716h-220z" />
<glyph unicode="&#xa7;" horiz-adv-x="1179" d="M94 643q0 80 49 147.5t125 102.5q-84 74 -84 188q0 166 154 251q124 69 310 68.5t329 -61.5l-49 -192q-123 59 -296 59t-173 -98q0 -78 205 -137.5t291 -121.5q130 -93 130 -247.5t-153 -247.5q94 -76 94 -192q0 -171 -155 -259q-125 -71 -310 -71q-245 0 -395 94l61 191 q160 -88 320 -88q190 0 190 104q0 60 -84 104q-35 17 -180 61t-233 101q-145 95 -146 244zM342 700q0 -97 182 -159q230 -79 250 -88q61 39 61.5 114.5t-99.5 120.5q-39 16 -159.5 58.5t-160.5 60.5q-74 -37 -74 -107z" />
<glyph unicode="&#xa8;" horiz-adv-x="614" d="M-47 1257.5q0 59.5 42.5 100.5t102 41t97.5 -41.5t38 -100.5t-39 -100t-98 -41t-101 41t-42 100.5zM379 1257.5q0 59.5 40.5 100.5t100.5 41t99.5 -41t39.5 -100.5t-39.5 -100.5t-99.5 -41q-59 0 -100 41t-41 100.5z" />
<glyph unicode="&#xa9;" horiz-adv-x="1386" d="M66 695q0 263 184 447.5t446 184.5t443.5 -184.5t181.5 -448t-180 -448.5t-445 -185q-264 0 -447 185.5t-183 448.5zM203 692.5q0 -211.5 141.5 -363t351.5 -151.5t351 152.5t141 363.5t-141 364t-351.5 152.5t-351.5 -153.5t-141 -364.5zM348 682q0 167 115 274.5 t283 108t225 -56.5l-31 -111q-82 47 -198.5 47t-183 -67t-66.5 -183t70 -188t189.5 -72t198.5 51l31 -106q-101 -66 -262 -66t-266 101t-105 268z" />
<glyph unicode="&#xaa;" horiz-adv-x="792" d="M68 737q0 135 150 196q106 42 265 42v12q0 78 -116.5 78t-206.5 -53l-43 131q122 68 272 67.5t233 -72.5t83 -212v-219q0 -101 12 -160h-199l-14 67h-4q-82 -78 -192.5 -77.5t-175.5 54t-64 146.5zM285 754q0 -78 90 -78q48 0 82.5 31t34.5 79v66q-207 0 -207 -98z" />
<glyph unicode="&#xab;" horiz-adv-x="970" d="M57 518l240 391h219l-248 -391l248 -393h-219zM463 518l239 391h220l-248 -391l248 -393h-220z" />
<glyph unicode="&#xac;" horiz-adv-x="1220" d="M82 672v192h1057v-647h-203v455h-854z" />
<glyph unicode="&#xad;" horiz-adv-x="673" d="M61 430v209h551v-209h-551z" />
<glyph unicode="&#xae;" horiz-adv-x="1044" d="M63 941q0 192 135 327t326 135t324 -134.5t133 -327.5t-131.5 -327.5t-325 -134.5t-327.5 135t-134 327zM174 940q0 -151 100 -260t250 -109t250 109t100 260t-100 261t-250 110t-250 -110t-100 -261zM336 674v512q93 14 164 14q221 0 221 -151q0 -90 -98 -119v-4 q69 -13 82 -125q10 -84 26 -127h-110q-13 17 -31 133q-11 78 -96 78h-50v-211h-108zM444 969h52q113 0 112 73q0 76 -104 76q-48 0 -60 -2v-147z" />
<glyph unicode="&#xaf;" horiz-adv-x="614" d="M47 1192v162h522v-162h-522z" />
<glyph unicode="&#xb0;" horiz-adv-x="745" d="M55 1094q0 131 94 220t226 89t224.5 -87t92.5 -217.5t-94 -219t-225.5 -88.5t-224.5 86t-93 217zM227 1094.5q0 -65.5 41.5 -111t107.5 -45.5t107 45t41 113.5t-41 113.5t-107.5 45t-107.5 -47.5t-41 -113z" />
<glyph unicode="&#xb1;" horiz-adv-x="1220" d="M84 0v193h1055v-193h-1055zM84 641v193h426v354h203v-354h426v-193h-426v-362h-203v362h-426z" />
<glyph unicode="&#xb2;" horiz-adv-x="786" d="M70 547v115q108 90 215 181q160 148 159 224q0 98 -122 98q-94 0 -181 -57l-65 156q131 90 284 90t246.5 -62.5t93.5 -179t-99 -223.5q-44 -48 -187 -160v-4h303v-178h-647z" />
<glyph unicode="&#xb3;" horiz-adv-x="780" d="M59 596l47 162q104 -55 183 -56q176 -1 176 91q0 54 -68 80q-49 19 -112 20h-66v141h62q160 0 159 82q0 72 -103 72t-200 -51l-47 149q119 68 299 68q118 0 200 -42q103 -53 103 -161q0 -128 -174 -180v-4q86 -10 145 -58.5t60 -130.5q0 -127 -132 -191 q-102 -50 -261.5 -50t-270.5 59z" />
<glyph unicode="&#xb4;" horiz-adv-x="614" d="M147 1122l181 314h293l-256 -314h-218z" />
<glyph unicode="&#xb6;" horiz-adv-x="1138" d="M68 926q0 305 275 411q137 53 338 53.5t304 -22.5v-1464h-203v1288h-149v-1288h-203v637h-12q-144 0 -247 119.5t-103 265.5z" />
<glyph unicode="&#xb7;" horiz-adv-x="538" d="M82 545q0 83 52.5 136.5t136 53.5t135 -53t51.5 -137t-52.5 -137.5t-136 -53.5t-135 54t-51.5 137z" />
<glyph unicode="&#xb8;" horiz-adv-x="614" d="M92 -377l41 115q60 -33 113 -33q74 0 73 53q0 62 -161 74l90 176h168l-56 -98q61 -8 105.5 -47.5t44.5 -100.5q0 -180 -252 -180q-96 0 -166 41z" />
<glyph unicode="&#xb9;" horiz-adv-x="765" d="M111 1247l231 96h213v-796h-246v600l-168 -72z" />
<glyph unicode="&#xba;" horiz-adv-x="808" d="M47 871.5q0 151.5 102.5 245t256.5 93.5t253.5 -90t100 -243t-100 -246.5t-255 -93.5t-256 91.5t-101.5 243zM274 871.5q0 -70.5 34 -125.5t98 -56q131 0 131 184q0 68 -34 125t-99 57.5t-100 -63.5q-30 -51 -30 -121.5z" />
<glyph unicode="&#xbb;" horiz-adv-x="970" d="M51 125l248 393l-248 391h217l242 -391l-242 -393h-217zM451 125l247 393l-247 391h217l241 -391l-241 -393h-217z" />
<glyph unicode="&#xbc;" horiz-adv-x="1742" d="M78 1247l231 96h213v-796h-246v600l-168 -72zM369 -23l761 1377h172l-761 -1377h-172zM919 186v129l357 494h282v-469h111v-154h-111v-184h-227v184h-412zM1140 342l7 -2h184v153q0 14 8 154h-4q-58 -112 -74 -134z" />
<glyph unicode="&#xbd;" horiz-adv-x="1742" d="M54 1247l231 96h213v-796h-246v600l-168 -72zM320 -23l761 1377h172l-761 -1377h-172zM1016 2v115q108 90 215 181q160 148 159 224q0 98 -122 98q-94 0 -181 -57l-65 156q131 90 284 90t246.5 -62.5t93.5 -179t-99 -223.5q-44 -48 -187 -160v-4h303v-178h-647z" />
<glyph unicode="&#xbe;" horiz-adv-x="1742" d="M59 596l47 162q104 -55 183 -56q176 -1 176 91q0 54 -68 80q-49 19 -112 20h-66v141h62q160 0 159 82q0 72 -103 72t-200 -51l-47 149q119 68 299 68q118 0 200 -42q103 -53 103 -161q0 -128 -174 -180v-4q86 -10 145 -58.5t60 -130.5q0 -127 -132 -191 q-102 -50 -261.5 -50t-270.5 59zM443 -19l761 1377h172l-761 -1377h-172zM940 186v129l357 494h282v-469h111v-154h-111v-184h-227v184h-412zM1161 342l7 -2h184v153q0 14 8 154h-4q-58 -112 -74 -134z" />
<glyph unicode="&#xbf;" horiz-adv-x="937" d="M92 -99q0 155 178 347q106 115 107 258v35h276l2 -73q0 -161 -121.5 -301t-121.5 -212q0 -121 149 -121q119 0 213 64l72 -226q-153 -86 -337 -86t-300.5 80t-116.5 235zM334 823q0 82 52 135.5t134 53.5t134.5 -53.5t52.5 -136t-52 -135t-134.5 -52.5t-134.5 53t-52 135 z" />
<glyph unicode="&#xc0;" horiz-adv-x="1390" d="M39 0l436 1380h418l448 -1380h-344l-112 360h-414l-102 -360h-330zM319 1745h330l180 -256h-254zM518 594h318q-125 404 -162 555h-4l-66 -262z" />
<glyph unicode="&#xc1;" horiz-adv-x="1390" d="M39 0l436 1380h418l448 -1380h-344l-112 360h-414l-102 -360h-330zM518 594h318q-125 404 -162 555h-4l-66 -262zM554 1485l176 258h332l-254 -258h-254z" />
<glyph unicode="&#xc2;" horiz-adv-x="1390" d="M39 0l436 1380h418l448 -1380h-344l-112 360h-414l-102 -360h-330zM376 1485l215 258h225l215 -258h-219l-107 135l-108 -135h-221zM518 594h318q-125 404 -162 555h-4l-66 -262z" />
<glyph unicode="&#xc3;" horiz-adv-x="1390" d="M39 0l436 1380h418l448 -1380h-344l-112 360h-414l-102 -360h-330zM404 1493q0 260 160 260q55 0 135 -41t92 -41q47 0 58 90h141q0 -116 -26 -172q-37 -82 -138 -82q-56 0 -132 38t-95 38q-43 0 -49 -90h-146zM518 594h318q-125 404 -162 555h-4l-66 -262z" />
<glyph unicode="&#xc4;" horiz-adv-x="1390" d="M39 0l436 1380h418l448 -1380h-344l-112 360h-414l-102 -360h-330zM347 1630.5q0 59.5 42.5 100.5t101.5 41t98 -42t39 -100t-39 -98.5t-98 -40.5t-101.5 40t-42.5 99.5zM518 594h318q-125 404 -162 555h-4l-66 -262zM773 1630q0 60 40.5 101t100 41t98.5 -41.5t39 -100 t-39 -99t-98.5 -40.5t-100 39.5t-40.5 99.5z" />
<glyph unicode="&#xc5;" horiz-adv-x="1390" d="M39 0l436 1380q-59 46 -59 149t82 160.5t197.5 57.5t193.5 -54t78 -161.5t-74 -151.5l448 -1380h-344l-110 360h-416l-100 -360h-332zM516 594h320q-103 334 -164 555l-66 -248zM584 1530q0 -47 29.5 -77t76.5 -30q111 0 111 109t-111 108q-106 0 -106 -110z" />
<glyph unicode="&#xc6;" horiz-adv-x="1841" d="M8 0l608 1380h1086v-258h-590l37 -288h545v-256h-502l45 -320h545v-258h-817l-52 377h-419l-158 -377h-328zM592 633h285l-70 524h-6l-70 -188z" />
<glyph unicode="&#xc7;" horiz-adv-x="1267" d="M74 672q0 336 218 533.5t558 197.5q227 0 358 -64l-65 -249q-131 55 -281 55q-210 0 -332 -122.5t-122 -332.5t122.5 -330t333.5 -120q155 0 277 47l55 -246q-133 -59 -371 -64l-39 -67q63 -8 106.5 -48t43.5 -102q0 -178 -250 -178q-100 0 -166 41l41 115 q57 -33 121 -33t63 53q0 62 -161 74l82 158q-278 43 -435 222t-157 460z" />
<glyph unicode="&#xc8;" horiz-adv-x="1126" d="M137 0v1380h881v-258h-563v-284h530v-256h-530v-324h592v-258h-910zM238 1745h330l180 -256h-254z" />
<glyph unicode="&#xc9;" horiz-adv-x="1126" d="M137 0v1380h881v-258h-563v-284h530v-256h-530v-324h592v-258h-910zM436 1486l176 258h332l-254 -258h-254z" />
<glyph unicode="&#xca;" horiz-adv-x="1126" d="M137 0v1380h881v-258h-563v-284h530v-256h-530v-324h592v-258h-910zM262 1485l215 258h225l215 -258h-219l-107 135l-108 -135h-221z" />
<glyph unicode="&#xcb;" horiz-adv-x="1126" d="M137 0v1380h881v-258h-563v-284h530v-256h-530v-324h592v-258h-910zM221 1630.5q0 59.5 42.5 100.5t101.5 41t98 -42t39 -100t-39 -98.5t-98 -40.5t-101.5 40t-42.5 99.5zM647 1630q0 60 40.5 101t100 41t98.5 -41.5t39 -100t-39 -99t-98.5 -40.5t-100 39.5t-40.5 99.5z " />
<glyph unicode="&#xcc;" horiz-adv-x="591" d="M-60 1745h330l180 -256h-254zM137 0v1380h318v-1380h-318z" />
<glyph unicode="&#xcd;" horiz-adv-x="591" d="M137 0v1380h318v-1380h-318zM146 1485l176 258h332l-254 -258h-254z" />
<glyph unicode="&#xce;" horiz-adv-x="591" d="M-28 1485l215 258h225l215 -258h-219l-107 135l-108 -135h-221zM137 0v1380h318v-1380h-318z" />
<glyph unicode="&#xcf;" horiz-adv-x="591" d="M-55 1630.5q0 59.5 42.5 100.5t101.5 41t98 -42t39 -100t-39 -98.5t-98 -40.5t-101.5 40t-42.5 99.5zM137 0v1380h318v-1380h-318zM371 1630q0 60 40.5 101t100 41t98.5 -41.5t39 -100t-39 -99t-98.5 -40.5t-100 39.5t-40.5 99.5z" />
<glyph unicode="&#xd0;" horiz-adv-x="1492" d="M4 578v249h150v539q205 31 438 31q565 0 745 -325q82 -148 82 -345q0 -748 -895 -747q-211 0 -370 20v578h-150zM471 231q26 -6 117 -6q240 0 367.5 125t127.5 365q0 438 -460 438q-93 0 -152 -12v-314h289v-249h-289v-347z" />
<glyph unicode="&#xd1;" horiz-adv-x="1456" d="M137 0v1380h377l333 -564q90 -154 200 -419h4q-25 217 -25 570v413h293v-1380h-336l-419 735q-68 125 -140 293h-8q14 -261 14 -600v-428h-293zM434 1493q0 260 160 260q55 0 135 -41t92 -41q47 0 58 90h141q0 -116 -26 -172q-37 -82 -138 -82q-56 0 -132 38t-95 38 q-43 0 -49 -90h-146z" />
<glyph unicode="&#xd2;" horiz-adv-x="1525" d="M74 682q0 311 192.5 516t502.5 205t496.5 -195.5t186.5 -512.5t-189 -517.5t-503.5 -200.5t-500 197t-185.5 508zM400 1745h330l180 -256h-254zM408 689q0 -184 82 -312q96 -150 272 -150t271 150q81 127 81 312.5t-83 314.5q-96 150 -270 149.5t-271 -151.5 q-82 -129 -82 -313z" />
<glyph unicode="&#xd3;" horiz-adv-x="1525" d="M74 682q0 311 192.5 516t502.5 205t496.5 -195.5t186.5 -512.5t-189 -517.5t-503.5 -200.5t-500 197t-185.5 508zM408 689q0 -184 82 -312q96 -150 272 -150t271 150q81 127 81 312.5t-83 314.5q-96 150 -270 149.5t-271 -151.5q-82 -129 -82 -313zM626 1485l176 258h332 l-254 -258h-254z" />
<glyph unicode="&#xd4;" horiz-adv-x="1525" d="M74 682q0 311 192.5 516t502.5 205t496.5 -195.5t186.5 -512.5t-189 -517.5t-503.5 -200.5t-500 197t-185.5 508zM408 689q0 -184 82 -312q96 -150 272 -150t271 150q81 127 81 312.5t-83 314.5q-96 150 -270 149.5t-271 -151.5q-82 -129 -82 -313zM437 1485l215 258h225 l215 -258h-219l-107 135l-108 -135h-221z" />
<glyph unicode="&#xd5;" horiz-adv-x="1525" d="M74 682q0 311 192.5 516t502.5 205t496.5 -195.5t186.5 -512.5t-189 -517.5t-503.5 -200.5t-500 197t-185.5 508zM408 689q0 -184 82 -312q96 -150 272 -150t271 150q81 127 81 312.5t-83 314.5q-96 150 -270 149.5t-271 -151.5q-82 -129 -82 -313zM471 1493 q0 260 160 260q55 0 135 -41t92 -41q47 0 58 90h141q0 -116 -26 -172q-37 -82 -138 -82q-56 0 -132 38t-95 38q-43 0 -49 -90h-146z" />
<glyph unicode="&#xd6;" horiz-adv-x="1525" d="M74 682q0 311 192.5 516t502.5 205t496.5 -195.5t186.5 -512.5t-189 -517.5t-503.5 -200.5t-500 197t-185.5 508zM408 689q0 -184 82 -312q96 -150 272 -150t271 150q81 127 81 312.5t-83 314.5q-96 150 -270 149.5t-271 -151.5q-82 -129 -82 -313zM409 1630.5 q0 59.5 42.5 100.5t101.5 41t98 -42t39 -100t-39 -98.5t-98 -40.5t-101.5 40t-42.5 99.5zM835 1630q0 60 40.5 101t100 41t98.5 -41.5t39 -100t-39 -99t-98.5 -40.5t-100 39.5t-40.5 99.5z" />
<glyph unicode="&#xd7;" horiz-adv-x="1220" d="M82 139l393 402l-393 401l135 137l393 -401l394 401l135 -137l-391 -401l391 -402l-138 -139l-391 401l-391 -401z" />
<glyph unicode="&#xd8;" horiz-adv-x="1525" d="M73.5 684.5q0.5 311.5 193 515t499.5 203.5q178 0 317 -74l119 168l180 -125l-118 -170q188 -201 188 -510.5t-187 -512t-501 -202.5q-166 0 -305 70l-131 -186l-174 139l120 172q-201 201 -200.5 512.5zM393 690q0 -136 58 -258l483 678q-79 49 -170 49 q-182 0 -276.5 -138.5t-94.5 -330.5zM608 268q62 -47 156 -47q183 0 283 150q86 129 86 321q-1 125 -54 240z" />
<glyph unicode="&#xd9;" horiz-adv-x="1439" d="M137 618v762h318v-782q0 -371 262 -371q268 0 268 371v782h318v-766q0 -304 -149 -470.5t-447 -166.5q-569 0 -570 641zM367 1745h330l180 -256h-254z" />
<glyph unicode="&#xda;" horiz-adv-x="1439" d="M137 618v762h318v-782q0 -371 262 -371q268 0 268 371v782h318v-766q0 -304 -149 -470.5t-447 -166.5q-569 0 -570 641zM583 1485l176 258h332l-254 -258h-254z" />
<glyph unicode="&#xdb;" horiz-adv-x="1439" d="M137 618v762h318v-782q0 -371 262 -371q268 0 268 371v782h318v-766q0 -304 -149 -470.5t-447 -166.5q-569 0 -570 641zM416 1485l215 258h225l215 -258h-219l-107 135l-108 -135h-221z" />
<glyph unicode="&#xdc;" horiz-adv-x="1439" d="M137 618v762h318v-782q0 -371 262 -371q268 0 268 371v782h318v-766q0 -304 -149 -470.5t-447 -166.5q-569 0 -570 641zM380 1630.5q0 59.5 42.5 100.5t101.5 41t98 -42t39 -100t-39 -98.5t-98 -40.5t-101.5 40t-42.5 99.5zM806 1630q0 60 40.5 101t100 41t98.5 -41.5 t39 -100t-39 -99t-98.5 -40.5t-100 39.5t-40.5 99.5z" />
<glyph unicode="&#xdd;" horiz-adv-x="1282" d="M25 1380h364l260 -594q47 127 256 594h361l-473 -798v-582h-318v569zM523 1485l176 258h332l-254 -258h-254z" />
<glyph unicode="&#xde;" horiz-adv-x="1218" d="M137 0v1380h314v-250q74 8 180 9q220 0 359 -92q163 -108 163 -318q0 -242 -162 -362q-143 -109 -393 -109q-76 0 -147 10v-268h-314zM451 514q50 -12 135 -12q254 0 254 203q0 195 -246 194q-101 0 -143 -10v-375z" />
<glyph unicode="&#xdf;" horiz-adv-x="1253" d="M129 0v883q0 280 132 439t405 159q185 0 316.5 -102t131.5 -281q0 -108 -51 -168q-119 -56 -119 -142q0 -61 70 -135q166 -175 166 -321q0 -174 -120 -264.5t-279.5 -90.5t-243.5 35l38 232q58 -29 129.5 -29t113.5 26.5t42 81t-74 132.5q-162 167 -161 293 q0 166 168 258q16 32 16 67q0 74 -45 121t-119 47q-199 0 -199 -332v-909h-317z" />
<glyph unicode="&#xe0;" horiz-adv-x="1107" d="M61 285q0 216 207 313q153 72 398 72v12q0 125 -189 125q-154 0 -284 -76l-60 201q167 92 399 92q449 0 449 -432v-348q0 -152 16 -244h-284l-19 100h-8q-103 -123 -293 -123q-139 0 -235 85t-97 223zM213 1436h293l180 -314h-217zM375 317q0 -119 127 -118q74 0 124 49 t50 123v102q-301 0 -301 -156z" />
<glyph unicode="&#xe1;" horiz-adv-x="1107" d="M61 285q0 216 207 313q153 72 398 72v12q0 125 -189 125q-154 0 -284 -76l-60 201q167 92 399 92q449 0 449 -432v-348q0 -152 16 -244h-284l-19 100h-8q-103 -123 -293 -123q-139 0 -235 85t-97 223zM375 317q0 -119 127 -118q74 0 124 49t50 123v102q-301 0 -301 -156z M407 1122l181 314h293l-256 -314h-218z" />
<glyph unicode="&#xe2;" horiz-adv-x="1107" d="M61 285q0 216 207 313q153 72 398 72v12q0 125 -189 125q-154 0 -284 -76l-60 201q167 92 399 92q449 0 449 -432v-348q0 -152 16 -244h-284l-19 100h-8q-103 -123 -293 -123q-139 0 -235 85t-97 223zM238 1122l207 314h203l206 -314h-202l-105 178l-108 -178h-201z M375 317q0 -119 127 -118q74 0 124 49t50 123v102q-301 0 -301 -156z" />
<glyph unicode="&#xe3;" horiz-adv-x="1107" d="M61 285q0 216 207 313q153 72 398 72v12q0 125 -189 125q-154 0 -284 -76l-60 201q167 92 399 92q449 0 449 -432v-348q0 -152 16 -244h-284l-19 100h-8q-103 -123 -293 -123q-139 0 -235 85t-97 223zM244 1137q0 260 158 260q46 0 137 -41q67 -39 90 -39q47 0 56 90h139 q0 -254 -164 -254q-61 0 -131.5 38t-93.5 38q-43 0 -49 -92h-142zM375 317q0 -119 127 -118q74 0 124 49t50 123v102q-301 0 -301 -156z" />
<glyph unicode="&#xe4;" horiz-adv-x="1107" d="M61 285q0 216 207 313q153 72 398 72v12q0 125 -189 125q-154 0 -284 -76l-60 201q167 92 399 92q449 0 449 -432v-348q0 -152 16 -244h-284l-19 100h-8q-103 -123 -293 -123q-139 0 -235 85t-97 223zM200 1257.5q0 59.5 42.5 100.5t102 41t97.5 -41.5t38 -100.5 t-39 -100t-98 -41t-101 41t-42 100.5zM375 317q0 -119 127 -118q74 0 124 49t50 123v102q-301 0 -301 -156zM626 1257.5q0 59.5 40.5 100.5t100.5 41t99.5 -41t39.5 -100.5t-39.5 -100.5t-99.5 -41q-59 0 -100 41t-41 100.5z" />
<glyph unicode="&#xe5;" horiz-adv-x="1107" d="M61 285q0 216 207 313q153 72 398 72v12q0 125 -189 125q-154 0 -284 -76l-60 201q167 92 399 92q449 0 449 -432v-348q0 -152 16 -244h-284l-19 100h-8q-103 -123 -293 -123q-139 0 -235 85t-97 223zM318 1304.5q0 96.5 69.5 150.5t171 54t168.5 -53t66.5 -150 t-70 -150.5t-166.5 -53.5t-168 53t-71 149.5zM375 317q0 -119 127 -118q74 0 124 49t50 123v102q-301 0 -301 -156zM463 1303q0 -40 26.5 -68.5t68 -28.5t68 28t26.5 71t-26 71.5t-68 28.5q-94 0 -95 -102z" />
<glyph unicode="&#xe6;" horiz-adv-x="1685" d="M61 291q0 208 215 301q156 68 396 67v29q0 58 -74 91q-57 26 -123 26q-146 0 -278 -78l-62 201q183 96 363 96q244 0 344 -164q130 164 343 164t326.5 -144t112.5 -356q0 -21 -8 -112h-651q7 -100 88 -150.5t213.5 -50.5t265.5 55l43 -211q-148 -78 -379 -78 q-280 0 -389 179h-8q-132 -178 -383 -179q-150 0 -252 84t-103 230zM375 313q0 -115 131 -114q48 0 96 26.5t63 63t15 78.5v100q-305 0 -305 -154zM963 627h368q0 84 -46.5 137t-128 53t-135 -54.5t-58.5 -135.5z" />
<glyph unicode="&#xe7;" horiz-adv-x="954" d="M68 494q0 250 166 390t419 140q140 0 250 -41l-51 -235q-74 35 -190.5 34.5t-192.5 -77t-76 -202.5t78 -203t193.5 -77t199.5 35l43 -231q-104 -44 -258 -47l-39 -68q62 -8 106 -48.5t44 -101.5q0 -180 -252 -180q-96 0 -166 41l43 117q55 -35 120 -35t64 53 q0 62 -161 74l79 158q-199 35 -309 168.5t-110 335.5z" />
<glyph unicode="&#xe8;" horiz-adv-x="1105" d="M67.5 481.5q0.5 237.5 145 390t368.5 152.5t345 -140t121 -364q-1 -73 -13 -121h-665q9 -98 96 -143t220 -45t263 43l41 -211q-156 -66 -389 -66t-383 133.5t-149.5 371zM254 1436h293l180 -314h-217zM367 616h385q0 88 -48 143.5t-133.5 55.5t-138 -56t-65.5 -143z" />
<glyph unicode="&#xe9;" horiz-adv-x="1105" d="M67.5 481.5q0.5 237.5 145 390t368.5 152.5t345 -140t121 -364q-1 -73 -13 -121h-665q9 -98 96 -143t220 -45t263 43l41 -211q-156 -66 -389 -66t-383 133.5t-149.5 371zM367 616h385q0 88 -48 143.5t-133.5 55.5t-138 -56t-65.5 -143zM448 1122l181 314h293l-256 -314 h-218z" />
<glyph unicode="&#xea;" horiz-adv-x="1105" d="M67.5 481.5q0.5 237.5 145 390t368.5 152.5t345 -140t121 -364q-1 -73 -13 -121h-665q9 -98 96 -143t220 -45t263 43l41 -211q-156 -66 -389 -66t-383 133.5t-149.5 371zM268 1122l207 314h203l206 -314h-202l-105 178l-108 -178h-201zM367 616h385q0 88 -48 143.5 t-133.5 55.5t-138 -56t-65.5 -143z" />
<glyph unicode="&#xeb;" horiz-adv-x="1105" d="M67.5 481.5q0.5 237.5 145 390t368.5 152.5t345 -140t121 -364q-1 -73 -13 -121h-665q9 -98 96 -143t220 -45t263 43l41 -211q-156 -66 -389 -66t-383 133.5t-149.5 371zM234 1257.5q0 59.5 42.5 100.5t102 41t97.5 -41.5t38 -100.5t-39 -100t-98 -41t-101 41t-42 100.5z M367 616h385q0 88 -48 143.5t-133.5 55.5t-138 -56t-65.5 -143zM660 1257.5q0 59.5 40.5 100.5t100.5 41t99.5 -41t39.5 -100.5t-39.5 -100.5t-99.5 -41q-59 0 -100 41t-41 100.5z" />
<glyph unicode="&#xec;" horiz-adv-x="573" d="M-62 1436h293l180 -314h-217zM129 0v1001h317v-1001h-317z" />
<glyph unicode="&#xed;" horiz-adv-x="573" d="M129 0v1001h317v-1001h-317zM155 1122l181 314h293l-256 -314h-218z" />
<glyph unicode="&#xee;" horiz-adv-x="573" d="M-18 1122l207 314h203l206 -314h-202l-105 178l-108 -178h-201zM129 0v1001h317v-1001h-317z" />
<glyph unicode="&#xef;" horiz-adv-x="573" d="M-65 1257.5q0 59.5 42.5 100.5t102 41t97.5 -41.5t38 -100.5t-39 -100t-98 -41t-101 41t-42 100.5zM129 0v1001h317v-1001h-317zM361 1257.5q0 59.5 40.5 100.5t100.5 41t99.5 -41t39.5 -100.5t-39.5 -100.5t-99.5 -41q-59 0 -100 41t-41 100.5z" />
<glyph unicode="&#xf0;" horiz-adv-x="1210" d="M69.5 475.5q0.5 218.5 143 355t352.5 136.5q87 0 150 -43l4 6q-83 105 -187 172l-305 -129l-55 127l219 96q-88 54 -198 96l131 181q170 -57 342 -166l292 125l64 -123l-223 -95q344 -274 344 -688q0 -244 -147 -396.5t-384 -152.5t-390 140t-152.5 358.5zM395 488 q0 -114 47 -191q56 -94 164.5 -94t162.5 96q44 77 44 197q0 279 -205 278q-108 0 -160.5 -86t-52.5 -200z" />
<glyph unicode="&#xf1;" horiz-adv-x="1228" d="M121 1001h274l15 -141h8q112 164 306.5 164t287 -123t92.5 -313v-588h-318v547q0 223 -165 223q-80 0 -127 -57t-48 -140v-573h-317v680q0 148 -8 321zM328 1137q0 260 158 260q46 0 137 -41q67 -39 90 -39q47 0 56 90h139q0 -254 -164 -254q-61 0 -131.5 38t-93.5 38 q-43 0 -49 -92h-142z" />
<glyph unicode="&#xf2;" horiz-adv-x="1214" d="M67.5 498.5q0.5 239.5 154 382.5t392 143t386 -141.5t147.5 -376.5t-151 -382t-389.5 -147t-389 141t-150 380.5zM285 1436h293l180 -314h-217zM393 501q0 -119 52 -208.5t161 -89.5t165 100q46 81 46 199t-45 197q-55 99 -165 99.5t-167 -98.5q-47 -80 -47 -199z" />
<glyph unicode="&#xf3;" horiz-adv-x="1214" d="M67.5 498.5q0.5 239.5 154 382.5t392 143t386 -141.5t147.5 -376.5t-151 -382t-389.5 -147t-389 141t-150 380.5zM393 501q0 -119 52 -208.5t161 -89.5t165 100q46 81 46 199t-45 197q-55 99 -165 99.5t-167 -98.5q-47 -80 -47 -199zM464 1122l181 314h293l-256 -314 h-218z" />
<glyph unicode="&#xf4;" horiz-adv-x="1214" d="M67.5 498.5q0.5 239.5 154 382.5t392 143t386 -141.5t147.5 -376.5t-151 -382t-389.5 -147t-389 141t-150 380.5zM301 1122l207 314h203l206 -314h-202l-105 178l-108 -178h-201zM393 501q0 -119 52 -208.5t161 -89.5t165 100q46 81 46 199t-45 197q-55 99 -165 99.5 t-167 -98.5q-47 -80 -47 -199z" />
<glyph unicode="&#xf5;" horiz-adv-x="1214" d="M67.5 498.5q0.5 239.5 154 382.5t392 143t386 -141.5t147.5 -376.5t-151 -382t-389.5 -147t-389 141t-150 380.5zM319 1137q0 260 158 260q46 0 137 -41q67 -39 90 -39q47 0 56 90h139q0 -254 -164 -254q-61 0 -131.5 38t-93.5 38q-43 0 -49 -92h-142zM393 501 q0 -119 52 -208.5t161 -89.5t165 100q46 81 46 199t-45 197q-55 99 -165 99.5t-167 -98.5q-47 -80 -47 -199z" />
<glyph unicode="&#xf6;" horiz-adv-x="1214" d="M67.5 498.5q0.5 239.5 154 382.5t392 143t386 -141.5t147.5 -376.5t-151 -382t-389.5 -147t-389 141t-150 380.5zM254 1257.5q0 59.5 42.5 100.5t102 41t97.5 -41.5t38 -100.5t-39 -100t-98 -41t-101 41t-42 100.5zM393 501q0 -119 52 -208.5t161 -89.5t165 100 q46 81 46 199t-45 197q-55 99 -165 99.5t-167 -98.5q-47 -80 -47 -199zM680 1257.5q0 59.5 40.5 100.5t100.5 41t99.5 -41t39.5 -100.5t-39.5 -100.5t-99.5 -41q-59 0 -100 41t-41 100.5z" />
<glyph unicode="&#xf7;" horiz-adv-x="1220" d="M80 451v192h1057v-192h-1057zM457 186q0 69 41.5 111.5t111 42.5t111 -43.5t41.5 -113t-42 -111t-111 -41.5t-110.5 43t-41.5 112zM459 909q0 69 41.5 111.5t111 42.5t111 -43.5t41.5 -113t-42 -111t-111 -41.5t-110.5 43t-41.5 112z" />
<glyph unicode="&#xf8;" horiz-adv-x="1214" d="M70 489q0 247 150 391t388 144q141 0 252 -55l98 145l107 -76l-94 -137q176 -143 176 -395q0 -325 -264 -463q-125 -66 -269 -66t-247 54l-105 -148l-102 82l92 133q-182 144 -182 391zM377 510.5q0 -110.5 39 -172.5l4 -2l303 428q-48 35 -115 35q-115 0 -173 -89 t-58 -199.5zM502 238q40 -35 108 -35q117 0 175.5 86t58.5 194t-35 172l-4 2z" />
<glyph unicode="&#xf9;" horiz-adv-x="1226" d="M125 414v587h317v-534q0 -236 164 -236q74 0 124 52.5t50 126.5v591h318v-677q0 -161 8 -324h-275l-14 145h-8q-106 -168 -322 -168q-186 0 -274 121t-88 316zM272 1436h293l180 -314h-217z" />
<glyph unicode="&#xfa;" horiz-adv-x="1226" d="M125 414v587h317v-534q0 -236 164 -236q74 0 124 52.5t50 126.5v591h318v-677q0 -161 8 -324h-275l-14 145h-8q-106 -168 -322 -168q-186 0 -274 121t-88 316zM481 1122l181 314h293l-256 -314h-218z" />
<glyph unicode="&#xfb;" horiz-adv-x="1226" d="M125 414v587h317v-534q0 -236 164 -236q74 0 124 52.5t50 126.5v591h318v-677q0 -161 8 -324h-275l-14 145h-8q-106 -168 -322 -168q-186 0 -274 121t-88 316zM305 1122l207 314h203l206 -314h-202l-105 178l-108 -178h-201z" />
<glyph unicode="&#xfc;" horiz-adv-x="1226" d="M125 414v587h317v-534q0 -236 164 -236q74 0 124 52.5t50 126.5v591h318v-677q0 -161 8 -324h-275l-14 145h-8q-106 -168 -322 -168q-186 0 -274 121t-88 316zM264 1257.5q0 59.5 42.5 100.5t102 41t97.5 -41.5t38 -100.5t-39 -100t-98 -41t-101 41t-42 100.5z M690 1257.5q0 59.5 40.5 100.5t100.5 41t99.5 -41t39.5 -100.5t-39.5 -100.5t-99.5 -41q-59 0 -100 41t-41 100.5z" />
<glyph unicode="&#xfd;" horiz-adv-x="1101" d="M14 1001h353q194 -614 206 -677h7l176 677h340l-232 -633q-176 -483 -324 -641t-356 -180l-65 267q80 16 184.5 83t104.5 136q0 13 -17 53zM446 1122l181 314h293l-256 -314h-218z" />
<glyph unicode="&#xfe;" horiz-adv-x="1259" d="M127 -406v1792h317v-507h5q105 145 310.5 145t323.5 -163q106 -145 106.5 -358t-125.5 -369.5t-341 -156.5q-181 0 -274 119h-5v-502h-317zM444 414q0 -77 62 -136t139 -59q113 0 168 84t55 198.5t-55 195.5t-150.5 81t-157 -59.5t-61.5 -145.5v-159z" />
<glyph unicode="&#xff;" horiz-adv-x="1101" d="M14 1001h353q194 -614 206 -677h7l176 677h340l-232 -633q-176 -483 -324 -641t-356 -180l-65 267q80 16 184.5 83t104.5 136q0 13 -17 53zM221 1257.5q0 59.5 42.5 100.5t102 41t97.5 -41.5t38 -100.5t-39 -100t-98 -41t-101 41t-42 100.5zM647 1257.5 q0 59.5 40.5 100.5t100.5 41t99.5 -41t39.5 -100.5t-39.5 -100.5t-99.5 -41q-59 0 -100 41t-41 100.5z" />
<glyph unicode="&#x152;" horiz-adv-x="1984" d="M73.5 681q0.5 325 196.5 523.5t523 198.5q108 0 205 -11t126 -12h752v-258h-563v-284h530v-256h-530v-324h592v-258h-807q-49 0 -139 -11t-171 -12q-323 0 -519 189.5t-195.5 514.5zM410 684q0 -203 116.5 -330t321.5 -127q90 0 147 25v872q-65 29 -170 29 q-195 0 -305 -133t-110 -336z" />
<glyph unicode="&#x153;" horiz-adv-x="1826" d="M68 502q0 230 145 376t387.5 146t357.5 -180q127 180 350.5 180t340.5 -140.5t116 -361.5q0 -33 -8 -116h-651q8 -95 92.5 -144t211 -49t263.5 55l43 -213q-141 -78 -383.5 -78t-374.5 179q-130 -178 -370.5 -178.5t-380 147t-139.5 377.5zM395 502q0 -119 46 -200 q56 -99 165.5 -99t163.5 100q43 80 43 197.5t-43 197.5q-53 100 -163.5 100.5t-165.5 -97.5q-46 -80 -46 -199zM1098 621h372q0 195 -182 194q-81 0 -132.5 -56t-57.5 -138z" />
<glyph unicode="&#x178;" horiz-adv-x="1282" d="M25 1380h364l260 -594q47 127 256 594h361l-473 -798v-582h-318v569zM304 1630.5q0 59.5 42.5 100.5t101.5 41t98 -42t39 -100t-39 -98.5t-98 -40.5t-101.5 40t-42.5 99.5zM730 1630q0 60 40.5 101t100 41t98.5 -41.5t39 -100t-39 -99t-98.5 -40.5t-100 39.5t-40.5 99.5z " />
<glyph unicode="&#x2c6;" horiz-adv-x="614" d="M0 1122l207 314h203l206 -314h-202l-105 178l-108 -178h-201z" />
<glyph unicode="&#x2dc;" horiz-adv-x="614" d="M18 1137q0 260 158 260q46 0 137 -41q67 -39 90 -39q47 0 56 90h139q0 -254 -164 -254q-61 0 -131.5 38t-93.5 38q-43 0 -49 -92h-142z" />
<glyph unicode="&#x2000;" horiz-adv-x="886" />
<glyph unicode="&#x2001;" horiz-adv-x="1772" />
<glyph unicode="&#x2002;" horiz-adv-x="886" />
<glyph unicode="&#x2003;" horiz-adv-x="1772" />
<glyph unicode="&#x2004;" horiz-adv-x="590" />
<glyph unicode="&#x2005;" horiz-adv-x="443" />
<glyph unicode="&#x2006;" horiz-adv-x="295" />
<glyph unicode="&#x2007;" horiz-adv-x="295" />
<glyph unicode="&#x2008;" horiz-adv-x="221" />
<glyph unicode="&#x2009;" horiz-adv-x="354" />
<glyph unicode="&#x200a;" horiz-adv-x="98" />
<glyph unicode="&#x2010;" horiz-adv-x="673" d="M61 430v209h551v-209h-551z" />
<glyph unicode="&#x2011;" horiz-adv-x="673" d="M61 430v209h551v-209h-551z" />
<glyph unicode="&#x2012;" horiz-adv-x="673" d="M61 430v209h551v-209h-551z" />
<glyph unicode="&#x2013;" horiz-adv-x="1024" d="M61 422v192h902v-192h-902z" />
<glyph unicode="&#x2014;" horiz-adv-x="2048" d="M61 422v192h1926v-192h-1926z" />
<glyph unicode="&#x2018;" horiz-adv-x="548" d="M59 844q97 309 248 559l195 16q-98 -274 -144 -557z" />
<glyph unicode="&#x2019;" horiz-adv-x="548" d="M57 844q98 274 144 557l299 18q-101 -315 -248 -557z" />
<glyph unicode="&#x201a;" horiz-adv-x="548" d="M37 -211q98 274 143 557l299 19q-97 -310 -248 -560z" />
<glyph unicode="&#x201c;" horiz-adv-x="956" d="M57 844q97 309 248 559l195 16q-98 -274 -144 -557zM467 844q105 320 248 559l194 16q-98 -274 -143 -557z" />
<glyph unicode="&#x201d;" horiz-adv-x="956" d="M57 844q98 274 144 557l299 18q-108 -327 -248 -557zM467 844q98 274 143 557l299 18q-100 -315 -247 -557z" />
<glyph unicode="&#x201e;" horiz-adv-x="968" d="M35 -211q98 274 143 557l299 19q-105 -321 -248 -560zM444 -211q98 274 144 557l299 19q-97 -310 -248 -560z" />
<glyph unicode="&#x2022;" horiz-adv-x="704" d="M80 701.5q0 113.5 80 193.5t192 80q113 0 193 -80t80 -193.5t-79.5 -192.5t-194 -79t-193 79t-78.5 192.5z" />
<glyph unicode="&#x2026;" horiz-adv-x="2048" d="M154 168q0 83 52.5 136.5t136 53.5t134.5 -53t51 -137t-52 -137.5t-135.5 -53.5t-135 54t-51.5 137zM836 168q0 83 52.5 136.5t136 53.5t134.5 -53t51 -137t-52 -137.5t-135.5 -53.5t-135 54t-51.5 137zM1518 168q0 83 52.5 136.5t136 53.5t134.5 -53t51 -137t-52 -137.5 t-135.5 -53.5t-135 54t-51.5 137z" />
<glyph unicode="&#x202f;" horiz-adv-x="354" />
<glyph unicode="&#x2039;" horiz-adv-x="565" d="M57 518l240 391h219l-248 -391l248 -393h-219z" />
<glyph unicode="&#x203a;" horiz-adv-x="565" d="M49 125l248 393l-248 391h217l242 -391l-242 -393h-217z" />
<glyph unicode="&#x205f;" horiz-adv-x="443" />
<glyph unicode="&#x2122;" horiz-adv-x="1826" d="M35 1214v166h674v-166h-238v-649h-203v649h-233zM758 565l55 815h279q108 -355 153 -546h4q55 211 69 250l97 296h264l50 -815h-197q-20 385 -25 670h-4q-39 -162 -198 -655h-158q-115 402 -131 473l-43 182h-4q-4 -273 -27 -670h-184z" />
<glyph unicode="&#xe000;" horiz-adv-x="1003" d="M0 0v1004h1004v-1004h-1004z" />
<glyph unicode="&#xfb01;" horiz-adv-x="1228" d="M31 768v233h131v41q0 219 162 336q142 102 353 102.5t320 -65.5l-63 -235q-94 51 -232 51q-225 0 -225 -195v-35h623v-1001h-318v768h-303v-768h-317v768h-131z" />
<glyph unicode="&#xfb02;" horiz-adv-x="1228" d="M31 768v233h131v43q0 214 160 325t388 111.5t390 -87.5v-1393h-318v1225q-36 23 -123 22q-182 0 -182 -207v-39h187v-233h-185v-768h-317v768h-131z" />
</font>
</defs>
</svg>
